<svg xmlns="http://www.w3.org/2000/svg" width="30" height="30" viewBox="0 0 30 30">
  <path id="link_2_" data-name="link (2)" d="M15,0A15,15,0,1,0,30,15,15,15,0,0,0,15,0Zm1.987,19.631-1.331,1.331a4.6,4.6,0,0,1-3.3,1.369,4.68,4.68,0,0,1-3.319-7.988l1.331-1.331a.906.906,0,0,1,1.313,0,.928.928,0,0,1,0,1.331L10.35,15.656a2.824,2.824,0,0,0-.806,1.987,2.761,2.761,0,0,0,.806,1.987,2.818,2.818,0,0,0,3.994,0l1.313-1.312a.928.928,0,0,1,1.331,0,.906.906,0,0,1,0,1.313Zm.656-5.963-3.975,3.975a.928.928,0,1,1-1.312-1.312l3.975-3.975a.928.928,0,1,1,1.313,1.313Zm3.319,1.988-1.331,1.331a.88.88,0,0,1-.656.281.91.91,0,0,1-.656-.281.928.928,0,0,1,0-1.331l1.331-1.313a2.825,2.825,0,0,0,.806-1.987,2.761,2.761,0,0,0-.806-1.988,2.818,2.818,0,0,0-3.994,0l-1.313,1.313a.928.928,0,0,1-1.331,0,.906.906,0,0,1,0-1.312l1.331-1.331a4.68,4.68,0,1,1,6.619,6.619Z" fill="#009bdb"/>
</svg>
